<?xml version="1.0" encoding="UTF-8"?><svg id="Layer_1" xmlns="http://www.w3.org/2000/svg" viewBox="0 0 380.4 139.62"><defs><style>.cls-1,.cls-2{fill:#fff;}.cls-3{letter-spacing:-.05em;}.cls-4{letter-spacing:-.03em;}.cls-2{font-family:MarqueeMoon-Regular, 'Marquee Moon';font-size:65px;}.cls-5{fill:#35c1f9;}</style></defs><g><path class="cls-1" d="M161.2,53.4l2.71,3.45,.3,.38,.39,.5c1.94-10.39,6.33-19.91,12.56-27.96-2.07,3.99-2.97,8.18-2.62,12.35-4.24,4.91-7.48,10.36-9.5,16.18l1.27,1.63c2.02-5.21,4.96-10.19,8.7-14.76,1.35,5.89,5.17,11.62,11.51,16.55-2.67,5.19-4.83,10.51-6.4,15.81l3.56,4.54c1.46-5.95,3.59-11.98,6.32-17.9,7.06,4.54,15.68,7.6,24.86,9.16-1.28,8.41-2.23,16.79-2.73,24.65-.69-.12-1.38-.26-2.06-.4,.68,.26,1.36,.52,2.04,.78,1.87,.71,3.75,1.38,5.63,2.03,2.21,.76,4.42,1.49,6.63,2.18,9.12,.43,18.36-.32,27.09-2.28,.18,2.96,.26,5.83,.25,8.58,0,.05,0,.09,0,.13,1.87,.29,3.71,.54,5.55,.76,.02-.77,.05-1.53,.05-2.33,0-2.76-.1-5.62-.32-8.57,5.72-1.67,11.15-3.89,16.08-6.67,4.15-2.33,7.72-4.93,10.67-7.71,.44,2.83,.66,5.64,.65,8.4-.02,4.4-.61,8.43-1.73,12.06-2.15,2.02-4.63,3.93-7.41,5.72,.55-.01,1.11,0,1.65-.03,.37-.01,.72-.05,1.09-.07,1.36-1.04,2.65-2.1,3.82-3.2-.42,1.05-.88,2.06-1.38,3.03,.02,0,.04,0,.05,0,.37-.03,.72-.08,1.08-.12,1.64-.17,3.23-.37,4.75-.64,7.89-11.31,12.53-25.04,12.53-39.84C298.86,31.32,267.54,0,229.05,0c-13.08,0-25.33,3.62-35.8,9.91l1.32,.11-10.37,6.36c-11.22,9.43-19.43,22.33-22.99,37.02Zm19.13-27.43c1.49-1.65,3.04-3.22,4.69-4.71,4.13-2.72,8.95-4.65,14.32-5.69-2.65,3.27-3.85,6.91-3.54,10.52-7.39,3.6-13.87,8.26-19.1,13.68-.39-4.69,.85-9.4,3.64-13.8Zm7.88,32.63c-6.09-4.74-9.76-10.24-11.06-15.89,5.18-5.71,11.61-10.73,18.92-14.75,.83,3.6,3.17,7.11,7.05,10.12-5.77,6.25-10.83,13.23-14.91,20.52Zm27.23,11.16c-8.82-1.5-17.11-4.44-23.89-8.8,3.76-7.52,8.4-14.79,13.7-21.37,4.32,2.77,9.6,4.65,15.21,5.6-1.94,7.82-3.64,16.18-5.01,24.57Zm7.94-24.16c5.72,.64,11.67,.34,17.21-.9,2.51,7.71,4.71,15.97,6.48,24.28-8.71,1.96-18.05,2.42-27.05,1.42,.92-8.46,2.06-16.89,3.35-24.81Zm-5.57,53.19c.35-7.88,.98-16.31,1.84-24.78,9.36,1.04,19.08,.56,28.14-1.48,1.64,8.34,2.83,16.68,3.46,24.51-10.77,2.42-22.33,2.99-33.44,1.75Zm25.6-54.81c2.92-.85,5.68-1.99,8.2-3.4,2.12-1.19,3.93-2.52,5.44-3.93,6.15,5.93,11.53,12.63,15.87,19.69-2.37,2.23-5.22,4.3-8.54,6.17-3.94,2.22-8.29,4-12.87,5.34-2.2-8.21-4.94-16.32-8.08-23.87Zm34.64-17.68c1.64,2.62,2.72,5.33,3.23,8.08-5.16-4.88-11.59-8.87-18.91-11.71-.68-3.61-2.87-7.14-6.59-10.2,2.98,.3,5.78,.98,8.35,2,5.17,3.29,9.85,7.28,13.91,11.84Zm3.58,11.01c.25,5.67-1.84,11.36-6.24,16.45-4.58-6.8-10.27-13.18-16.77-18.75,2.79-3.24,4.13-6.86,3.97-10.47,7.37,3.25,13.83,7.6,19.04,12.78Zm-9,51.72c-4.88,2.75-10.25,4.95-15.91,6.61-.77-7.79-2.27-16.05-4.32-24.28,4.77-1.39,9.29-3.24,13.4-5.56,3.46-1.95,6.42-4.11,8.89-6.42,4.04,7.17,6.97,14.65,8.51,22.03-2.94,2.75-6.45,5.32-10.56,7.63Zm4.64-32.35c4.57-5.3,6.76-11.22,6.49-17.12,3.91,4.36,6.93,9.24,8.93,14.47,.53,2.12,.95,4.27,1.26,6.46-.36,6.14-2.94,12.22-7.7,17.72-1.62-7.29-4.72-14.59-8.99-21.53Zm10.16,42.94c-.54,.73-1.1,1.46-1.72,2.18,1.19-3.69,1.82-7.76,1.83-12.17,0-2.76-.23-5.55-.69-8.35,4.36-5.05,6.88-10.58,7.58-16.19,.11,1.56,.19,3.13,.19,4.72,0,10.73-2.61,20.86-7.2,29.81Zm2.45-54.26c-1.76-3.17-3.93-6.13-6.47-8.86-.41-2.19-1.19-4.37-2.29-6.5,3.57,4.67,6.53,9.82,8.76,15.35Zm-58.32-28.64c.06,.04,.12,.09,.17,.13,7.72-3.29,15.01-4.75,21.52-4.55,3.37,2.77,5.36,5.97,5.96,9.23-8.11-2.7-17.21-4.04-26.85-3.7,.01,.06,.02,.12,.02,.18,9.7,.21,18.86,2.06,27.03,5.21,.15,3.26-1.06,6.55-3.59,9.48-7.19-5.72-15.27-10.44-23.81-13.69-.05,.05-.09,.11-.15,.15,8.09,3.73,15.72,8.9,22.54,15.02-1.37,1.28-3.01,2.48-4.92,3.56-2.27,1.28-4.78,2.3-7.41,3.07-3.47-7.91-7.37-15.09-11.5-20.95-.09,.03-.18,.05-.27,.07,3.31,6.07,6.44,13.45,9.22,21.54-5.02,1.12-10.4,1.39-15.58,.82,1.43-8.31,3.02-15.94,4.71-22.27-.1-.01-.19-.02-.29-.04-2.53,6.21-4.92,13.72-7.07,21.93-5.08-.86-9.85-2.56-13.77-5.07,5.88-6.84,12.44-12.82,19.38-17.4-.02-.02-.05-.04-.08-.06-.04-.02-.08-.06-.12-.09-7.56,4.15-14.71,9.71-21.11,16.19-3.51-2.73-5.62-5.9-6.37-9.16,8.11-4,17.2-6.79,26.8-8,0-.06-.02-.12-.03-.18-9.69,.66-18.85,2.95-27.03,6.48-.28-3.27,.81-6.56,3.21-9.52,7.32-.96,15.5-.36,24.17,2.03,.04-.05,.08-.11,.14-.16-8.23-2.87-16.01-3.93-22.95-3.37,1.45-1.44,3.22-2.77,5.34-3.96,2.07-1.17,4.33-2.12,6.72-2.87,3.68,1.3,7.8,4.42,12.16,9.48,.08-.03,.18-.05,.27-.08-3.54-5.29-6.91-8.63-9.91-10.11,4.98-1.21,10.36-1.56,15.55-1.06-1.21,1.77-2.56,5.43-4,11.06,.09,.01,.19,.03,.28,.04,2.29-5.52,4.46-9.08,6.39-10.77,5.55,.85,10.77,2.69,14.94,5.48,.79-.03,1.56-.02,2.32,.02-4.61-3.09-10.38-5.12-16.51-6.06,.03-.01,.05-.01,.07-.03,8.31,1.03,16.14,3.6,23.2,7.44-7.91-2.39-17.88-1.08-28.79,4.51Zm-7.28-12.29c-2.49,.22-4.96,.59-7.33,1.17-.16-.06-.33-.09-.49-.14,2.56-.5,5.17-.84,7.83-1.03Zm-11.15,1.77c.34,.04,.68,.09,1.02,.17-2.63,.82-5.13,1.87-7.41,3.16-2.34,1.32-4.32,2.8-5.91,4.38-4.07,.59-7.81,1.77-11.15,3.49,6.89-5.19,14.84-9.06,23.46-11.21Z"/><path class="cls-1" d="M250.99,131.59c1.92-1.82,3.46-4.69,4.55-8.61-1.59-.23-3.21-.51-4.83-.79-1.48-.25-2.96-.52-4.46-.81-9.28,1.59-19.01,1.86-28.42,.81-.16-2.45-.26-5.23-.3-8.33-1.94-.64-3.87-1.32-5.8-2,.04,3.57,.19,6.76,.48,9.54-10.81-1.84-20.98-5.45-29.29-10.79-.93-3.49-1.42-7.42-1.41-11.8-.66-.34-1.32-.69-1.98-1.04l-2.2-.21c.12,3.68,.62,7.09,1.5,10.16-3.35-2.61-6.09-5.4-8.25-8.31-.44-.86-.86-1.73-1.26-2.62l-.52-.05-.48-.05-3.82-.37c10.47,25.37,35.46,43.28,64.56,43.28,16.31,0,31.33-5.64,43.23-15.05-2.15-.09-4.33-.23-6.54-.42-4.54,3.07-9.48,5.58-14.74,7.45Zm-.36-8.95c-.91,4.95-2.37,8.43-4.24,10.35-8.48,1.91-17.58,2.35-26.33,1.38-.93-1.77-1.64-5.13-2.07-10.01,10.84,1.2,22.13,.65,32.64-1.71Zm-38.18,.93c.66,4.91,1.74,8.32,3.14,10.17-1.84-.31-3.67-.71-5.46-1.15-8.28-2.5-15.87-6.59-22.42-11.92-1.68-2.19-3.07-4.75-4.09-7.72,8.19,5.26,18.2,8.82,28.83,10.62Zm-39.43-19.71c1.85,2.16,4.02,4.26,6.56,6.24,.81,2.21,1.87,4.2,3.07,6.01-3.67-3.67-6.91-7.78-9.63-12.24Z"/></g><g><path class="cls-5" d="M315.22,77.93l2.3-4.12,3.07-5.51-20.98-13.41h0c2.39,5.16,4.06,11.16,5.21,16.8,0,.01,0,.02,0,.04h.01c2.19,10.73,2.56,20.17,2.56,20.17l3.9-6.97c3.27,11.94-1.8,21.56-14.64,26.35-1.78,.67-3.73,1.25-5.78,1.74-2.7,.64-5.49,1.16-8.35,1.58-1.65,.25-3.32,.45-5.02,.62-.08,0-.17,.02-.26,.03-.36,.04-.73,.07-1.09,.11-2.06,.18-4.18,.28-6.31,.34-1.41,.04-2.82,.07-4.25,.06-2.84-.02-5.75-.15-8.7-.38-1.77-.14-3.56-.32-5.36-.53-10.76-1.29-22.14-4-33.98-8.32-1.9-.7-3.81-1.44-5.73-2.22-3.27-1.32-6.56-2.74-9.89-4.32l-7.66,.35c5.68,2.82,11.54,5.34,17.47,7.6,1.92,.73,3.85,1.43,5.78,2.11,11.24,3.9,22.67,6.78,33.69,8.55,1.72,.28,3.44,.55,5.14,.78,1.37,.18,2.72,.31,4.08,.46,3.41,.37,6.77,.64,10.05,.78,2.12,.08,4.21,.13,6.26,.12,7.98-.03,15.39-.78,21.9-2.32,2.29-.54,4.44-1.2,6.42-1.94,18.77-6.99,21.44-21.76,10.16-38.52Z"/><path class="cls-5" d="M166.56,92.33l.92,.09,2.94,.29,6.94,.67,3.42,.33h0l.94,.09,6.2,.59-1.07-1.37-1.79-2.28-2.53-3.23-3.75-4.78-.57-.73-13.26-16.92-.21-.27-.97-1.23-.13-.18-.12-.16-1.6-2.04-1.26,8.37-.73,4.87h0c-.19-.15-.36-.3-.55-.46-1.14-.92-2.27-1.84-3.32-2.77-23.59-20.6-26.5-40.99-4.32-49.26,1.78-.67,3.73-1.25,5.78-1.74,4.85-1.14,10.3-1.75,16.16-1.87,1.9-1.4,4.58-3.29,7.67-5.19-11.78-.93-22.58-.45-31.57,1.68-2.29,.54-4.46,1.19-6.45,1.93-26.79,10-20.78,35.82,11.79,60.66,1.26,.96,2.58,1.92,3.92,2.88h0l-.7,4.67-.97,6.45,5.5,.53,3.69,.36h.01Z"/></g><text class="cls-2" transform="translate(0 83.37)"><tspan class="cls-4" x="0" y="0">P</tspan><tspan class="cls-3" x="23.92" y="0">A</tspan><tspan x="47.97" y="0">TE</tspan><tspan class="cls-3" x="96.52" y="0">T</tspan><tspan x="118.1" y="0" xml:space="preserve">A         NET</tspan></text></svg>